<svg viewBox="0 0 64 64" fill="none" xmlns="http://www.w3.org/2000/svg">
  <rect width="64" height="64" rx="14" fill="#F0A31B" />
  <g transform="translate(4.48 4.48) scale(0.86)">
    <g fill="#FFFFFF">
      <path d="M27.2 17.5C26.4 13.8 24.4 12 22.2 11" stroke="#FFFFFF" stroke-width="2.6" stroke-linecap="round" fill="none" />
      <path d="M36.8 17.5C37.6 13.8 39.6 12 41.8 11" stroke="#FFFFFF" stroke-width="2.6" stroke-linecap="round" fill="none" />
      <circle cx="21.4" cy="10.6" r="2.8" />
      <circle cx="42.6" cy="10.6" r="2.8" />
      <circle cx="32" cy="21" r="5.8" />
      <ellipse cx="19.5" cy="31" rx="12.5" ry="7.8" transform="rotate(-16 19.5 31)" />
      <ellipse cx="44.5" cy="31" rx="12.5" ry="7.8" transform="rotate(16 44.5 31)" />
      <path d="M32 58C29.2 52 24.5 43 24.5 34C24.5 29.3 27.5 26.7 32 26.7C36.5 26.7 39.5 29.3 39.5 34C39.5 43 34.8 52 32 58Z" />
    </g>
    <rect x="26" y="35" width="12" height="4.6" rx="2.3" fill="#F0A31B" />
    <rect x="27.2" y="43" width="9.6" height="4.6" rx="2.3" fill="#F0A31B" />
  </g>
</svg>
